<?xml version="1.0" encoding="UTF-8"?>
<svg width="30px" height="30px" viewBox="0 0 30 30" version="1.1" xmlns="http://www.w3.org/2000/svg" xmlns:xlink="http://www.w3.org/1999/xlink">
    <!-- Generator: Sketch 61 (89581) - https://sketch.com -->
    <title>弹出框/语音会议语音关闭</title>
    <desc>Created with Sketch.</desc>
    <defs>
        <linearGradient x1="42.4345129%" y1="88.8932292%" x2="42.4345129%" y2="0%" id="linearGradient-1">
            <stop stop-color="#3AF8DE" offset="0%"></stop>
            <stop stop-color="#2A85FB" offset="100%"></stop>
        </linearGradient>
        <linearGradient x1="42.4345129%" y1="88.8932292%" x2="42.4345129%" y2="0%" id="linearGradient-2">
            <stop stop-color="#3AF8DE" offset="0%"></stop>
            <stop stop-color="#2A85FB" offset="100%"></stop>
        </linearGradient>
    </defs>
    <g id="弹出框/语音会议语音关闭" stroke="none" stroke-width="1" fill="none" fill-rule="evenodd">
        <g id="icon/2样式/声音shengyin/nor备份-3" transform="translate(7.000000, 5.000000)" fill="url(#linearGradient-1)">
            <path d="M2.06110287,9.125 C2.40628084,9.125 2.68610287,9.40482203 2.68610287,9.75 L2.68648406,10.1627216 C2.68648406,13.0995891 5.06551151,15.4803905 8.00019059,15.4803905 C9.658828,15.4803905 11.1399712,14.7198807 12.1144285,13.528298 L13.4445925,14.8585164 C12.317646,16.1658942 10.7284658,17.0629987 8.93107653,17.2956155 L8.93144578,19.75 C8.93144578,20.095178 8.65162375,20.375 8.30644578,20.375 L7.68284291,20.375 C7.33766494,20.375 7.05784291,20.095178 7.05784291,19.75 L7.05810034,17.2941565 C3.63445958,16.8455959 0.968890571,13.985729 0.819489096,10.4739625 C0.815138681,10.4414224 0.8125,10.4085193 0.8125,10.375 L0.8125,9.75 C0.8125,9.40482203 1.09232203,9.125 1.4375,9.125 L2.06110287,9.125 Z M3.9345,5.3485 L5.8085,7.2225 L5.80877433,9.83383608 C5.80981746,9.84601362 5.81062963,9.85826009 5.81120635,9.87057121 C5.8652666,11.0245752 6.81866196,11.9375 7.97820923,11.9375 C8.67143626,11.9375 9.29098128,11.611206 9.68872587,11.1021771 L11.0191991,12.4329388 C10.2769719,13.2796678 9.18788805,13.8125 7.97820923,13.8125 C5.84802926,13.8125 4.09180623,12.1602229 3.94506006,10.0511825 C3.93854495,10.0065561 3.93517145,9.96090915 3.93517145,9.91447368 L3.9345,5.3485 Z M14.5517887,9.125 C14.8969667,9.125 15.1767887,9.40482203 15.1767887,9.75 L15.1780603,10.029124 C15.1842814,10.0727601 15.1875,10.1173647 15.1875,10.1627216 C15.1875,11.2221427 14.9586245,12.2280673 14.547657,13.1336769 L13.094297,11.6805517 C13.213528,11.2791941 13.2866875,10.8579906 13.3076395,10.4230818 C13.3037894,10.406921 13.3031858,10.391031 13.3031858,10.375 L13.3031858,9.75 C13.3031858,9.40482203 13.5830078,9.125 13.9281858,9.125 L14.5517887,9.125 Z M7.97820923,0.6875 C10.1083892,0.6875 11.8646122,2.33977714 12.0113584,4.4488175 C12.0178735,4.49344389 12.021247,4.53909085 12.021247,4.58552632 L12.021247,9.91447368 C12.021247,9.96090915 12.0178735,10.0065561 12.0113584,10.0511825 C11.9999686,10.2148775 11.9788829,10.3758208 11.9486791,10.5334535 L10.1475,8.7335 L10.1476441,4.66616392 C10.146601,4.65398638 10.1457888,4.64173991 10.1452121,4.62942879 C10.0911519,3.47542475 9.1377565,2.5625 7.97820923,2.5625 C6.89031551,2.5625 5.98388282,3.3660835 5.83136712,4.41841603 L4.35310853,2.93966241 C5.01500042,1.60242657 6.39306798,0.6875 7.97820923,0.6875 Z" id="形状结合"></path>
        </g>
        <line x1="24" y1="24" x2="6" y2="6" id="路径" stroke="url(#linearGradient-2)" stroke-width="2"></line>
    </g>
</svg>