<?xml version="1.0" encoding="UTF-8"?>
<svg width="30px" height="30px" viewBox="0 0 30 30" version="1.1" xmlns="http://www.w3.org/2000/svg" xmlns:xlink="http://www.w3.org/1999/xlink">
    <!-- Generator: Sketch 61 (89581) - https://sketch.com -->
    <title>弹出框/临时对讲语音</title>
    <desc>Created with Sketch.</desc>
    <g id="弹出框/临时对讲语音" stroke="none" stroke-width="1" fill="none" fill-rule="evenodd">
        <g id="icon/2样式/声音shengyin/nor备份-3" transform="translate(7.000000, 5.000000)" fill="#FFFFFF" fill-rule="nonzero">
            <path d="M2.06110287,9.125 C2.40628084,9.125 2.68610287,9.40482203 2.68610287,9.75 L2.68648406,10.1627216 C2.68648406,13.0995891 5.06551151,15.4803905 8.00019059,15.4803905 C10.8476407,15.4803905 13.1719802,13.2390172 13.3076395,10.4230818 C13.3037894,10.406921 13.3031858,10.391031 13.3031858,10.375 L13.3031858,9.75 C13.3031858,9.40482203 13.5830078,9.125 13.9281858,9.125 L14.5517887,9.125 C14.8969667,9.125 15.1767887,9.40482203 15.1767887,9.75 L15.1780603,10.029124 C15.1842814,10.0727601 15.1875,10.1173647 15.1875,10.1627216 C15.1875,13.8194332 12.4607621,16.8388061 8.93107653,17.2956155 L8.93144578,19.75 C8.93144578,20.095178 8.65162375,20.375 8.30644578,20.375 L7.68284291,20.375 C7.33766494,20.375 7.05784291,20.095178 7.05784291,19.75 L7.05810034,17.2941565 C3.63445958,16.8455959 0.968890571,13.985729 0.819489096,10.4739625 C0.815138681,10.4414224 0.8125,10.4085193 0.8125,10.375 L0.8125,9.75 C0.8125,9.40482203 1.09232203,9.125 1.4375,9.125 L2.06110287,9.125 Z M7.97820923,0.6875 C10.1083892,0.6875 11.8646122,2.33977714 12.0113584,4.4488175 C12.0178735,4.49344389 12.021247,4.53909085 12.021247,4.58552632 L12.021247,9.91447368 C12.021247,9.96090915 12.0178735,10.0065561 12.0113584,10.0511825 C11.8646122,12.1602229 10.1083892,13.8125 7.97820923,13.8125 C5.84802926,13.8125 4.09180623,12.1602229 3.94506006,10.0511825 C3.93854495,10.0065561 3.93517145,9.96090915 3.93517145,9.91447368 L3.93517145,4.58552632 C3.93517145,4.53909085 3.93854495,4.49344389 3.94506006,4.4488175 C4.09180623,2.33977714 5.84802926,0.6875 7.97820923,0.6875 Z M7.97820923,2.5625 C6.81866196,2.5625 5.8652666,3.47542475 5.81120635,4.62942879 C5.81062963,4.64173991 5.80981746,4.65398638 5.80877433,4.66616392 L5.80877433,9.83383608 C5.80981746,9.84601362 5.81062963,9.85826009 5.81120635,9.87057121 C5.8652666,11.0245752 6.81866196,11.9375 7.97820923,11.9375 C9.1377565,11.9375 10.0911519,11.0245752 10.1452121,9.87057121 C10.1457888,9.85826009 10.146601,9.84601362 10.1476441,9.83383608 L10.1476441,4.66616392 C10.146601,4.65398638 10.1457888,4.64173991 10.1452121,4.62942879 C10.0911519,3.47542475 9.1377565,2.5625 7.97820923,2.5625 Z" id="形状结合"></path>
        </g>
    </g>
</svg>